<svg width="1217" height="321" viewBox="0 0 1217 321" fill="none" xmlns="http://www.w3.org/2000/svg">
<path fill-rule="evenodd" clip-rule="evenodd" d="M429.304 0C528.005 0.000181989 608.018 71.6968 608.018 160.139C608.017 248.581 528.005 320.276 429.304 320.276C330.603 320.276 250.591 248.581 250.59 160.139C250.59 71.6968 330.603 0.000175993 429.304 0ZM508.418 107.92C488.81 89.1856 457.019 89.1854 437.411 107.92L429.3 115.666L421.195 107.92C401.588 89.1857 369.798 89.1859 350.19 107.92C330.583 126.655 330.583 157.031 350.19 175.767L429.304 251.36L508.418 175.767C528.025 157.032 528.025 126.655 508.418 107.92Z" fill="#343A3F"/>
<path d="M94.1792 245.316H234.431V311.703H0V8.22183H94.1792V245.316Z" fill="#343A3F"/>
<path d="M774.177 222.199H776.886L848.029 8.22183H954.404L839.898 311.703H711.165L596.658 8.22183H703.033L774.177 222.199Z" fill="#343A3F"/>
<path d="M1079.61 311.703H985.431V8.22183H1079.61V311.703Z" fill="#343A3F"/>
<path d="M1216.04 311.703H1121.86V8.22183H1216.04V311.703Z" fill="#343A3F"/>
</svg>
