<svg width="1280" height="321" viewBox="0 0 1280 321" fill="none" xmlns="http://www.w3.org/2000/svg">
<path d="M1005.45 8.71862H1091.4V167.055H1093.87L1206.41 8.71862H1279.37V311.213H1193.42V152.285H1191.57L1077.18 311.213H1005.45V8.71862Z" fill="#343A3F"/>
<path d="M720.419 311.213V8.71862H857.686C881.8 8.71862 902.05 11.8204 918.436 18.0239C934.924 24.2274 947.342 32.991 955.689 44.3148C964.14 55.6387 968.365 68.9811 968.365 84.3422C968.365 95.4691 965.789 105.611 960.636 114.769C955.586 123.926 948.476 131.607 939.304 137.81C930.132 143.915 919.415 148.15 907.151 150.513V153.467C920.754 153.959 933.121 157.258 944.25 163.363C955.38 169.369 964.243 177.69 970.838 188.325C977.434 198.861 980.731 211.268 980.731 225.545C980.731 242.088 976.197 256.809 967.128 269.708C958.163 282.608 945.384 292.75 928.792 300.135C912.201 307.52 892.415 311.213 869.434 311.213H720.419ZM806.365 245.633H846.556C860.983 245.633 871.804 243.073 879.018 237.952C886.231 232.734 889.838 225.053 889.838 214.911C889.838 207.821 888.138 201.815 884.737 196.891C881.336 191.968 876.493 188.226 870.207 185.666C864.023 183.106 856.552 181.826 847.792 181.826H806.365V245.633ZM806.365 131.016H841.609C849.132 131.016 855.779 129.884 861.55 127.619C867.321 125.354 871.804 122.105 874.999 117.871C878.296 113.538 879.945 108.27 879.945 102.066C879.945 92.7119 876.441 85.573 869.434 80.6496C862.426 75.6277 853.563 73.1168 842.846 73.1168H806.365V131.016Z" fill="#343A3F"/>
<path d="M513.225 0C611.926 0 691.939 71.6962 691.939 160.138C691.939 248.58 611.926 320.277 513.225 320.277C414.524 320.277 334.511 248.58 334.511 160.138C334.511 71.6963 414.524 0.000175993 513.225 0ZM592.339 107.92C572.732 89.1855 540.94 89.1853 521.333 107.92L513.222 115.667L505.117 107.92C485.51 89.1853 453.718 89.1855 434.111 107.92C414.504 126.655 414.504 157.031 434.111 175.766L513.225 251.36L592.339 175.766C611.946 157.031 611.946 126.655 592.339 107.92Z" fill="#343A3F"/>
<path d="M343.527 310.234H234.813L169.267 128.547L105.308 310.327H6.10352e-05L116.43 9.09154L225.056 9.09155C263.776 109.824 304.641 209.581 343.527 310.234Z" fill="#343A3F"/>
</svg>
