<svg width="1908" height="512" viewBox="0 0 1908 512" fill="none" xmlns="http://www.w3.org/2000/svg">
<path d="M1633.87 112.3H1719.82V270.636H1722.29L1834.82 112.3H1907.79V414.794H1821.84V255.866H1819.98L1705.59 414.794H1633.87V112.3Z" fill="#343A3F"/>
<path d="M1348.83 414.794V112.3H1486.1C1510.22 112.3 1530.47 115.401 1546.85 121.605C1563.34 127.808 1575.76 136.572 1584.11 147.896C1592.56 159.22 1596.78 172.562 1596.78 187.923C1596.78 199.05 1594.2 209.192 1589.05 218.35C1584 227.507 1576.89 235.188 1567.72 241.391C1558.55 247.496 1547.83 251.731 1535.57 254.094V257.048C1549.17 257.54 1561.54 260.839 1572.67 266.944C1583.8 272.95 1592.66 281.271 1599.25 291.906C1605.85 302.442 1609.15 314.849 1609.15 329.127C1609.15 345.669 1604.61 360.39 1595.54 373.289C1586.58 386.189 1573.8 396.331 1557.21 403.716C1540.62 411.101 1520.83 414.794 1497.85 414.794H1348.83ZM1434.78 349.214H1474.97C1489.4 349.214 1500.22 346.654 1507.43 341.533C1514.65 336.315 1518.25 328.634 1518.25 318.492C1518.25 311.402 1516.55 305.396 1513.15 300.472C1509.75 295.549 1504.91 291.807 1498.62 289.247C1492.44 286.687 1484.97 285.407 1476.21 285.407H1434.78V349.214ZM1434.78 234.597H1470.03C1477.55 234.597 1484.2 233.465 1489.97 231.2C1495.74 228.935 1500.22 225.686 1503.41 221.452C1506.71 217.119 1508.36 211.851 1508.36 205.647C1508.36 196.293 1504.86 189.154 1497.85 184.231C1490.84 179.209 1481.98 176.698 1471.26 176.698H1434.78V234.597Z" fill="#343A3F"/>
<path d="M1141.64 103.581C1240.34 103.581 1320.36 175.277 1320.36 263.719C1320.36 352.161 1240.34 423.858 1141.64 423.858C1042.94 423.858 962.927 352.161 962.926 263.719C962.926 175.277 1042.94 103.581 1141.64 103.581ZM1220.75 211.501C1201.15 192.767 1169.36 192.766 1149.75 211.501L1141.64 219.248L1133.53 211.501C1113.93 192.766 1082.13 192.767 1062.53 211.501C1042.92 230.236 1042.92 260.612 1062.53 279.347L1141.64 354.941L1220.75 279.347C1240.36 260.612 1240.36 230.236 1220.75 211.501Z" fill="#343A3F"/>
<path d="M971.943 413.815H863.228L797.683 232.128L733.724 413.908H628.416L744.846 112.673L853.472 112.673C892.192 213.405 933.056 313.162 971.943 413.815Z" fill="#343A3F"/>
<path d="M0 54.6131C0 24.4511 24.4511 0 54.6131 0H457.385C487.547 0 511.998 24.4511 511.998 54.6131V457.385C511.998 487.547 487.547 511.998 457.385 511.998H54.6131C24.4511 511.998 0 487.547 0 457.385V54.6131Z" fill="#7E90C2"/>
<path fill-rule="evenodd" clip-rule="evenodd" d="M314.341 58.4939C298.568 57.0839 281.142 60.0538 268.738 70.5287C246.876 88.9931 244.931 120.003 243.271 146.494L243.243 146.941C243.106 149.12 243.072 153.166 243.028 158.501C242.795 186.709 242.264 250.931 224.594 265.487C220.551 268.818 217.736 271.241 215.224 273.403C213.092 275.238 211.179 276.884 208.919 278.738C192.128 292.53 175.514 306.523 158.898 320.517C143.952 333.105 129.005 345.694 113.927 358.138C112.562 359.242 110.698 360.511 108.614 361.93C100.825 367.233 89.9625 374.628 90.597 383.329C91.8791 388.675 98.0148 392.934 103.089 394.215C105.919 394.93 109.04 394.951 112.026 394.971C112.66 394.976 113.288 394.98 113.907 394.991C120.267 395.102 126.626 395.144 132.973 394.634C137.215 394.293 141.431 393.818 145.647 393.344C151.691 392.665 157.734 391.985 163.849 391.697C164.732 391.655 165.659 391.589 166.61 391.522C169.644 391.306 172.913 391.073 175.692 391.55C177.42 391.845 180.333 393.838 182.841 395.553C183.999 396.345 185.071 397.078 185.9 397.558C205.877 410.33 240.412 414.874 262.251 408.601L265.08 433.683C264.124 433.683 262.772 433.649 261.15 433.607C252.436 433.387 235.923 432.968 231.198 436.6C227.282 439.611 226.942 445.335 230.49 449.23C233.806 452.355 235.638 452.694 244.441 452.961C253.22 453.23 289.784 452.961 289.784 452.961C289.784 452.961 306.032 453.808 309.653 450.247C313.273 446.685 315.057 439.26 310.429 436.6C305.533 433.787 294.177 433.907 286.74 433.986C285.774 433.996 284.874 434.005 284.063 434.007L284.084 404.58C318.396 394.957 345.599 376.485 358.215 342.918C364.402 326.46 363.366 310.215 362.3 293.49C361.904 287.27 361.503 280.985 361.468 274.597C361.424 268.435 361.369 256.706 361.303 242.552C361.133 206.563 360.89 154.899 360.573 139.232C362.665 136.727 367.283 135.821 371.577 134.98C378.498 133.623 384.576 132.431 377.873 124.969C376.192 123.098 369.144 116.637 362.646 115.764C361.144 115.562 359.745 114.63 359.567 113.125C359.403 111.736 359.253 110.058 359.1 108.335C358.83 105.294 358.547 102.113 358.146 100.138C356.334 91.0664 352.363 82.5659 346.567 75.3582C338.143 65.0202 327.526 59.6339 314.341 58.4939ZM273.567 94.4058C283.153 81.9231 303.718 76.5949 318.494 81.5949C343.037 89.8984 342.086 121.423 341.347 145.951C341.189 151.191 341.04 156.112 341.152 160.419C341.469 171.408 341.708 221.403 341.872 255.6C341.942 270.08 341.997 281.727 342.04 286.382C342.052 290.571 342.266 294.851 342.48 299.164C343.092 311.441 343.717 323.978 339.76 335.391C332.018 357.622 317.508 370.014 296.899 379.525C262.133 395.572 222.606 398.087 188.199 379.525C187.115 378.945 186.039 378.329 184.961 377.712C180.416 375.109 175.837 372.488 170.455 372.446C167.199 372.42 163.99 372.751 160.771 373.082C159.179 373.247 157.584 373.411 155.98 373.533L124.494 375.823C125.389 375.022 126.307 374.16 127.251 373.274C132.65 368.203 138.874 362.357 146.281 362.872C157.423 363.611 168.535 365.226 179.633 366.838C186.449 367.828 193.259 368.817 200.067 369.602C228.484 372.881 262.342 366.552 284.195 346.817C291.448 340.268 298.68 328.441 303.522 314.587C305.564 308.747 306.51 302.746 306.453 296.873L306.183 297.144L264.632 255.593C263.398 254.359 262.311 253.033 261.373 251.637L261.366 251.637C261.366 249.917 260.898 245.27 260.898 245.27C260.898 245.27 259.737 238.127 260.898 222.855C261.792 211.078 262.257 196.894 262.736 182.254C263.934 145.656 265.225 106.209 273.567 94.4058ZM226.666 289.573C237.385 279.487 249.618 267.976 265.093 269.842C274.41 270.965 281.942 278.563 285.119 286.382C286.655 290.597 285.779 299.407 285.119 304.046C279.954 322.813 264.019 340.893 245.55 346.354C230.323 350.857 214.898 348.753 199.419 346.643C187.31 344.991 175.169 343.336 163.064 344.835C173.706 335.211 184.683 325.898 195.659 316.585C203.884 309.607 212.11 302.628 220.195 295.518C222.297 293.684 224.45 291.659 226.666 289.573Z" fill="white"/>
<path d="M316.23 119.581C314.783 112.681 308.014 108.262 301.117 109.709C294.213 111.157 289.794 117.926 291.243 124.827C292.692 131.729 299.461 136.148 306.361 134.698C313.262 133.248 317.679 126.48 316.23 119.581Z" fill="white"/>
<path d="M287.564 258.966C299.485 267.425 306.307 281.722 306.453 296.873L306.183 297.144L264.632 255.593C263.398 254.359 262.311 253.033 261.373 251.637C270.57 251.247 280.358 253.011 287.564 258.966Z" fill="white"/>
<path fill-rule="evenodd" clip-rule="evenodd" d="M347.732 218.301C337.434 208.003 320.738 208.003 310.44 218.301L306.18 222.559L301.923 218.301C291.625 208.003 274.929 208.003 264.631 218.301C255.567 227.365 254.482 241.385 261.373 251.637C270.57 251.247 280.358 253.011 287.564 258.966C299.485 267.425 306.307 281.722 306.453 296.873L347.732 255.594C358.03 245.296 358.03 228.599 347.732 218.301Z" fill="#EF66FF"/>
</svg>
