<svg width="1280" height="321" viewBox="0 0 1280 321" fill="none" xmlns="http://www.w3.org/2000/svg">
<path d="M1005.46 8.71865H1091.4V167.056H1093.88L1206.41 8.71865H1279.37V311.214H1193.43V152.286H1191.57L1077.18 311.214H1005.46V8.71865Z" fill="#FAFAFA"/>
<path d="M720.421 311.214V8.71865H857.689C881.803 8.71865 902.053 11.8204 918.439 18.0239C934.928 24.2274 947.345 32.9911 955.693 44.315C964.143 55.6389 968.369 68.9814 968.369 84.3425C968.369 95.4694 965.792 105.612 960.639 114.769C955.59 123.927 948.479 131.607 939.307 137.811C930.136 143.916 919.418 148.15 907.154 150.513V153.467C920.758 153.96 933.124 157.258 944.254 163.363C955.384 169.37 964.246 177.691 970.842 188.325C977.437 198.861 980.735 211.268 980.735 225.546C980.735 242.089 976.2 256.81 967.132 269.709C958.166 282.609 945.387 292.751 928.796 300.136C912.204 307.521 892.418 311.214 869.437 311.214H720.421ZM806.368 245.634H846.559C860.987 245.634 871.807 243.074 879.021 237.953C886.235 232.734 889.842 225.054 889.842 214.912C889.842 207.822 888.141 201.815 884.74 196.892C881.34 191.969 876.496 188.227 870.21 185.667C864.027 183.106 856.555 181.826 847.796 181.826H806.368V245.634ZM806.368 131.017H841.612C849.135 131.017 855.782 129.884 861.553 127.619C867.324 125.355 871.807 122.105 875.002 117.871C878.299 113.538 879.948 108.27 879.948 102.067C879.948 92.7123 876.445 85.5733 869.437 80.6499C862.429 75.628 853.567 73.117 842.849 73.117H806.368V131.017Z" fill="#FAFAFA"/>
<path d="M513.227 0C611.929 0 691.942 71.6965 691.942 160.139C691.942 248.581 611.929 320.278 513.227 320.278C414.525 320.278 334.512 248.581 334.512 160.139C334.512 71.6966 414.525 0.000175993 513.227 0ZM592.341 107.92C572.734 89.1858 540.942 89.1856 521.335 107.92L513.224 115.667L505.119 107.92C485.511 89.1856 453.72 89.1858 434.113 107.92C414.505 126.655 414.505 157.032 434.113 175.767L513.227 251.361L592.341 175.767C611.948 157.032 611.949 126.655 592.341 107.92Z" fill="#FAFAFA"/>
<path d="M343.528 310.235H234.813L169.267 128.548L105.309 310.328H6.10352e-05L116.43 9.09157L225.057 9.09158C263.777 109.825 304.642 209.581 343.528 310.235Z" fill="#FAFAFA"/>
</svg>
