<svg width="1908" height="512" viewBox="0 0 1908 512" fill="none" xmlns="http://www.w3.org/2000/svg">
<path d="M1633.88 112.3H1719.82V270.637H1722.3L1834.83 112.3H1907.79V414.795H1821.85V255.867H1819.99L1705.6 414.795H1633.88V112.3Z" fill="#FAFAFA"/>
<path d="M1348.84 414.795V112.3H1486.11C1510.22 112.3 1530.47 115.401 1546.86 121.605C1563.35 127.809 1575.76 136.572 1584.11 147.896C1592.56 159.22 1596.79 172.562 1596.79 187.924C1596.79 199.05 1594.21 209.193 1589.06 218.35C1584.01 227.508 1576.9 235.188 1567.73 241.392C1558.55 247.497 1547.84 251.731 1535.57 254.094V257.048C1549.18 257.541 1561.54 260.839 1572.67 266.944C1583.8 272.951 1592.66 281.272 1599.26 291.906C1605.86 302.442 1609.15 314.849 1609.15 329.127C1609.15 345.67 1604.62 360.391 1595.55 373.29C1586.58 386.19 1573.81 396.332 1557.21 403.717C1540.62 411.102 1520.84 414.795 1497.85 414.795H1348.84ZM1434.79 349.215H1474.98C1489.4 349.215 1500.23 346.655 1507.44 341.534C1514.65 336.316 1518.26 328.635 1518.26 318.493C1518.26 311.403 1516.56 305.396 1513.16 300.473C1509.76 295.55 1504.91 291.808 1498.63 289.248C1492.44 286.687 1484.97 285.407 1476.21 285.407H1434.79V349.215ZM1434.79 234.598H1470.03C1477.55 234.598 1484.2 233.465 1489.97 231.2C1495.74 228.936 1500.23 225.686 1503.42 221.452C1506.72 217.119 1508.37 211.851 1508.37 205.648C1508.37 196.293 1504.86 189.154 1497.85 184.231C1490.85 179.209 1481.98 176.698 1471.27 176.698H1434.79V234.598Z" fill="#FAFAFA"/>
<path d="M1141.64 103.581C1240.35 103.581 1320.36 175.278 1320.36 263.72C1320.36 352.162 1240.35 423.859 1141.64 423.859C1042.94 423.859 962.93 352.162 962.93 263.72C962.93 175.278 1042.94 103.581 1141.64 103.581ZM1220.76 211.501C1201.15 192.767 1169.36 192.767 1149.75 211.501L1141.64 219.248L1133.54 211.501C1113.93 192.767 1082.14 192.767 1062.53 211.501C1042.92 230.236 1042.92 260.613 1062.53 279.348L1141.64 354.942L1220.76 279.348C1240.37 260.613 1240.37 230.236 1220.76 211.501Z" fill="#FAFAFA"/>
<path d="M971.946 413.816H863.231L797.685 232.129L733.727 413.909H628.418L744.848 112.673L853.475 112.673C892.195 213.406 933.06 313.162 971.946 413.816Z" fill="#FAFAFA"/>
<path d="M0 54.6133C0 24.4512 24.4512 0 54.6133 0H457.387C487.549 0 512 24.4512 512 54.6133V457.387C512 487.549 487.549 512 457.387 512H54.6133C24.4512 512 0 487.549 0 457.387V54.6133Z" fill="#63729A"/>
<path fill-rule="evenodd" clip-rule="evenodd" d="M314.342 58.4941C298.569 57.0842 281.143 60.054 268.739 70.5289C246.876 88.9934 244.932 120.003 243.272 146.494L243.244 146.941C243.107 149.12 243.073 153.167 243.029 158.501C242.796 186.71 242.265 250.932 224.595 265.488C220.551 268.819 217.736 271.242 215.225 273.404C213.093 275.239 211.18 276.885 208.92 278.739C192.129 292.531 175.514 306.524 158.899 320.518C143.952 333.106 129.005 345.695 113.927 358.139C112.562 359.243 110.698 360.512 108.614 361.931C100.825 367.234 89.9628 374.629 90.5974 383.331C91.8794 388.676 98.0151 392.936 103.09 394.216C105.919 394.931 109.04 394.953 112.026 394.973C112.661 394.977 113.289 394.981 113.907 394.992C120.268 395.104 126.626 395.145 132.973 394.635C137.215 394.294 141.432 393.82 145.648 393.346C151.691 392.666 157.734 391.987 163.85 391.699C164.732 391.657 165.66 391.591 166.611 391.523C169.644 391.307 172.914 391.074 175.693 391.551C177.421 391.847 180.333 393.839 182.842 395.554C184 396.346 185.072 397.079 185.901 397.559C205.878 410.331 240.413 414.875 262.252 408.603L265.081 433.684C264.125 433.684 262.773 433.65 261.151 433.609C252.437 433.388 235.924 432.97 231.199 436.602C227.282 439.613 226.942 445.337 230.491 449.232C233.807 452.357 235.639 452.696 244.442 452.963C253.221 453.232 289.785 452.963 289.785 452.963C289.785 452.963 306.033 453.81 309.654 450.248C313.275 446.687 315.058 439.261 310.43 436.602C305.534 433.789 294.178 433.909 286.741 433.987C285.775 433.997 284.875 434.007 284.064 434.009L284.085 404.582C318.397 394.959 345.6 376.487 358.217 342.919C364.403 326.461 363.368 310.216 362.302 293.491C361.905 287.271 361.505 280.986 361.47 274.598C361.426 268.436 361.371 256.707 361.304 242.553C361.135 206.564 360.892 154.899 360.574 139.233C362.666 136.727 367.284 135.822 371.578 134.98C378.499 133.623 384.577 132.432 377.874 124.969C376.193 123.099 369.146 116.638 362.647 115.764C361.145 115.562 359.747 114.63 359.568 113.126C359.404 111.736 359.255 110.058 359.101 108.335C358.831 105.294 358.548 102.114 358.147 100.138C356.336 91.0667 352.364 82.5662 346.569 75.3585C338.144 65.0204 327.528 59.6341 314.342 58.4941ZM273.568 94.4061C283.154 81.9234 303.719 76.5952 318.495 81.5952C343.038 89.8988 342.087 121.424 341.348 145.952C341.19 151.192 341.042 156.113 341.153 160.42C341.47 171.409 341.709 221.404 341.873 255.601C341.943 270.081 341.999 281.728 342.041 286.383C342.054 290.572 342.267 294.852 342.482 299.165C343.093 311.442 343.718 323.979 339.761 335.392C332.019 357.624 317.509 370.015 296.9 379.527C262.134 395.573 222.607 398.089 188.2 379.527C187.116 378.946 186.04 378.33 184.962 377.713C180.417 375.111 175.838 372.489 170.456 372.447C167.199 372.421 163.99 372.752 160.772 373.084C159.179 373.248 157.585 373.412 155.981 373.534L124.495 375.824C125.389 375.023 126.308 374.161 127.251 373.275C132.65 368.204 138.874 362.359 146.281 362.874C157.424 363.613 168.536 365.227 179.634 366.839C186.449 367.829 193.259 368.818 200.068 369.604C228.485 372.882 262.343 366.553 284.196 346.818C291.449 340.269 298.681 328.442 303.523 314.588C305.565 308.749 306.511 302.747 306.454 296.874L306.184 297.145L264.633 255.594C263.398 254.36 262.312 253.034 261.374 251.638L261.367 251.638C261.367 249.918 260.899 245.271 260.899 245.271C260.899 245.271 259.738 238.128 260.899 222.855C261.793 211.079 262.257 196.895 262.737 182.255C263.935 145.656 265.226 106.209 273.568 94.4061ZM226.667 289.574C237.386 279.488 249.618 267.977 265.094 269.843C274.411 270.966 281.943 278.564 285.12 286.383C286.656 290.598 285.781 299.408 285.12 304.047C279.955 322.815 264.02 340.894 245.551 346.355C230.324 350.858 214.898 348.755 199.42 346.644C187.311 344.993 175.17 343.337 163.065 344.836C173.707 335.212 184.683 325.899 195.66 316.586C203.885 309.608 212.11 302.629 220.195 295.519C222.298 293.685 224.45 291.66 226.667 289.574Z" fill="white"/>
<path d="M316.231 119.581C314.784 112.682 308.016 108.262 301.118 109.71C294.214 111.157 289.795 117.926 291.244 124.828C292.693 131.729 299.462 136.149 306.362 134.699C313.263 133.249 317.68 126.481 316.231 119.581Z" fill="white"/>
<path d="M287.565 258.966C299.486 267.426 306.308 281.723 306.454 296.874L306.184 297.145L264.633 255.594C263.398 254.36 262.312 253.034 261.374 251.638C270.571 251.247 280.359 253.012 287.565 258.966Z" fill="white"/>
<path fill-rule="evenodd" clip-rule="evenodd" d="M347.734 218.302C337.436 208.004 320.739 208.004 310.441 218.302L306.181 222.56L301.924 218.302C291.626 208.004 274.93 208.004 264.631 218.302C255.568 227.366 254.482 241.386 261.374 251.638C270.571 251.247 280.359 253.012 287.565 258.966C299.486 267.426 306.308 281.723 306.454 296.874L347.734 255.595C358.031 245.296 358.032 228.6 347.734 218.302Z" fill="#D95DE8"/>
</svg>
