<svg width="1845" height="512" viewBox="0 0 1845 512" fill="none" xmlns="http://www.w3.org/2000/svg">
<path d="M0.00012207 54.6133C0.00012207 24.4512 24.4513 0 54.6135 0H457.387C487.549 0 512 24.4512 512 54.6133V457.387C512 487.549 487.549 512 457.387 512H54.6135C24.4514 512 0.00012207 487.549 0.00012207 457.387V54.6133Z" fill="#63729A"/>
<path fill-rule="evenodd" clip-rule="evenodd" d="M314.342 58.4941C298.569 57.0842 281.143 60.054 268.739 70.5289C246.877 88.9934 244.932 120.003 243.272 146.494L243.244 146.941C243.107 149.12 243.073 153.167 243.029 158.501C242.796 186.71 242.265 250.932 224.595 265.488C220.552 268.819 217.736 271.242 215.225 273.404C213.093 275.239 211.18 276.885 208.92 278.739C192.129 292.531 175.514 306.524 158.899 320.518C143.953 333.106 129.005 345.695 113.928 358.139C112.563 359.243 110.698 360.512 108.614 361.931C100.825 367.234 89.9629 374.629 90.5975 383.331C91.8795 388.676 98.0152 392.936 103.09 394.216C105.919 394.931 109.04 394.953 112.026 394.973C112.661 394.977 113.289 394.981 113.907 394.992C120.268 395.104 126.626 395.145 132.973 394.635C137.215 394.294 141.432 393.82 145.648 393.346C151.691 392.666 157.734 391.987 163.85 391.699C164.732 391.657 165.66 391.591 166.611 391.523C169.644 391.307 172.914 391.074 175.693 391.551C177.421 391.847 180.334 393.839 182.842 395.554C184 396.346 185.072 397.079 185.901 397.559C205.878 410.331 240.413 414.875 262.252 408.603L265.081 433.684C264.125 433.684 262.773 433.65 261.151 433.609C252.437 433.388 235.924 432.97 231.199 436.602C227.283 439.613 226.943 445.337 230.491 449.232C233.807 452.357 235.639 452.696 244.442 452.963C253.221 453.232 289.785 452.963 289.785 452.963C289.785 452.963 306.033 453.81 309.654 450.248C313.275 446.687 315.058 439.261 310.43 436.602C305.534 433.789 294.178 433.909 286.741 433.987C285.775 433.997 284.875 434.007 284.064 434.009L284.085 404.582C318.397 394.959 345.601 376.487 358.217 342.919C364.403 326.461 363.368 310.216 362.302 293.491C361.905 287.271 361.505 280.986 361.47 274.598C361.426 268.436 361.371 256.707 361.304 242.553C361.135 206.564 360.892 154.899 360.574 139.233C362.666 136.727 367.284 135.822 371.578 134.98C378.499 133.623 384.578 132.432 377.874 124.969C376.194 123.099 369.146 116.638 362.647 115.764C361.145 115.562 359.747 114.63 359.568 113.126C359.404 111.736 359.255 110.058 359.102 108.335C358.831 105.294 358.548 102.114 358.147 100.138C356.336 91.0667 352.365 82.5662 346.569 75.3585C338.144 65.0204 327.528 59.6341 314.342 58.4941ZM273.568 94.4061C283.154 81.9234 303.719 76.5952 318.496 81.5952C343.038 89.8988 342.088 121.424 341.348 145.952C341.19 151.192 341.042 156.113 341.154 160.42C341.47 171.409 341.71 221.404 341.874 255.601C341.943 270.081 341.999 281.728 342.041 286.383C342.054 290.572 342.267 294.852 342.482 299.165C343.094 311.442 343.718 323.979 339.761 335.392C332.019 357.624 317.509 370.015 296.901 379.527C262.134 395.573 222.607 398.089 188.2 379.527C187.116 378.946 186.04 378.33 184.962 377.713C180.417 375.111 175.838 372.489 170.456 372.447C167.199 372.421 163.991 372.752 160.772 373.084C159.179 373.248 157.585 373.412 155.981 373.534L124.495 375.824C125.39 375.023 126.308 374.161 127.251 373.275C132.65 368.204 138.875 362.359 146.281 362.874C157.424 363.613 168.536 365.227 179.634 366.839C186.449 367.829 193.259 368.818 200.068 369.604C228.485 372.882 262.343 366.553 284.197 346.818C291.449 340.269 298.681 328.442 303.524 314.588C305.565 308.749 306.511 302.747 306.455 296.874L306.184 297.145L264.633 255.594C263.399 254.36 262.312 253.034 261.374 251.638L261.367 251.638C261.367 249.918 260.899 245.271 260.899 245.271C260.899 245.271 259.738 238.128 260.899 222.855C261.793 211.079 262.258 196.895 262.737 182.255C263.935 145.656 265.226 106.209 273.568 94.4061ZM226.667 289.574C237.386 279.488 249.619 267.977 265.094 269.843C274.411 270.966 281.943 278.564 285.121 286.383C286.656 290.598 285.781 299.408 285.121 304.047C279.955 322.815 264.02 340.894 245.551 346.355C230.324 350.858 214.898 348.755 199.42 346.644C187.311 344.993 175.17 343.337 163.065 344.836C173.707 335.212 184.683 325.899 195.66 316.586C203.885 309.608 212.111 302.629 220.196 295.519C222.298 293.685 224.451 291.66 226.667 289.574Z" fill="white"/>
<path d="M316.231 119.581C314.784 112.682 308.016 108.262 301.118 109.71C294.215 111.157 289.795 117.926 291.244 124.828C292.693 131.729 299.462 136.149 306.362 134.699C313.263 133.249 317.68 126.481 316.231 119.581Z" fill="white"/>
<path d="M287.565 258.966C299.486 267.426 306.308 281.723 306.455 296.874L306.184 297.145L264.633 255.594C263.399 254.36 262.312 253.034 261.374 251.638C270.572 251.247 280.359 253.012 287.565 258.966Z" fill="white"/>
<path fill-rule="evenodd" clip-rule="evenodd" d="M347.734 218.302C337.436 208.004 320.739 208.004 310.441 218.302L306.181 222.56L301.924 218.302C291.626 208.004 274.93 208.004 264.632 218.302C255.568 227.366 254.483 241.386 261.374 251.638C270.572 251.247 280.359 253.012 287.565 258.966C299.486 267.426 306.308 281.723 306.455 296.874L347.734 255.595C358.032 245.296 358.032 228.6 347.734 218.302Z" fill="#D95DE8"/>
<path fill-rule="evenodd" clip-rule="evenodd" d="M1057.72 103.581C1156.43 103.581 1236.44 175.278 1236.44 263.721C1236.44 352.163 1156.43 423.858 1057.72 423.858C959.023 423.858 879.01 352.163 879.01 263.721C879.01 175.278 959.023 103.581 1057.72 103.581ZM1136.84 211.501C1117.23 192.767 1085.44 192.767 1065.83 211.501L1057.72 219.248L1049.62 211.501C1030.01 192.767 998.218 192.767 978.61 211.501C959.003 230.236 959.003 260.613 978.61 279.348L1057.72 354.942L1136.84 279.348C1156.45 260.613 1156.45 230.236 1136.84 211.501Z" fill="#FAFAFA"/>
<path d="M722.598 348.898H862.851V415.285H628.419V111.803H722.598V348.898Z" fill="#FAFAFA"/>
<path d="M1402.6 325.78H1405.31L1476.45 111.803H1582.83L1468.32 415.285H1339.59L1225.08 111.803H1331.45L1402.6 325.78Z" fill="#FAFAFA"/>
<path d="M1708.03 415.285H1613.85V111.803H1708.03V415.285Z" fill="#FAFAFA"/>
<path d="M1844.46 415.285H1750.28V111.803H1844.46V415.285Z" fill="#FAFAFA"/>
</svg>
