<svg width="1217" height="321" viewBox="0 0 1217 321" fill="none" xmlns="http://www.w3.org/2000/svg">
<path fill-rule="evenodd" clip-rule="evenodd" d="M429.306 0C528.007 0.00018199 608.02 71.6971 608.02 160.139C608.02 248.581 528.007 320.277 429.306 320.277C330.604 320.277 250.592 248.581 250.591 160.139C250.591 71.6971 330.604 0.000175993 429.306 0ZM508.42 107.92C488.812 89.186 457.02 89.1857 437.413 107.92L429.302 115.667L421.197 107.92C401.589 89.1861 369.799 89.1862 350.191 107.92C330.584 126.655 330.584 157.032 350.191 175.767L429.306 251.361L508.42 175.767C528.027 157.032 528.027 126.655 508.42 107.92Z" fill="#FAFAFA"/>
<path d="M94.1796 245.316H234.432V311.704H0V8.22186H94.1796V245.316Z" fill="#FAFAFA"/>
<path d="M774.18 222.199H776.888L848.032 8.22186H954.408L839.901 311.704H711.167L596.661 8.22186H703.036L774.18 222.199Z" fill="#FAFAFA"/>
<path d="M1079.61 311.704H985.434V8.22186H1079.61V311.704Z" fill="#FAFAFA"/>
<path d="M1216.04 311.704H1121.86V8.22186H1216.04V311.704Z" fill="#FAFAFA"/>
</svg>
