<?xml version="1.0" encoding="UTF-8"?>
<svg id="_Слой_1_копия_4" data-name="Слой 1 копия 4" xmlns="http://www.w3.org/2000/svg" viewBox="0 0 1844.85 512.63">
  <defs>
    <style>
      .cls-1 {
        fill: #64bb9c;
      }

      .cls-1, .cls-2, .cls-3, .cls-4 {
        stroke-width: 0px;
      }

      .cls-2, .cls-3 {
        fill: #343a3f;
      }

      .cls-3, .cls-5 {
        fill-rule: evenodd;
      }

      .cls-4 {
        fill: #fff;
      }

      .cls-5 {
        fill: #c858c1;
        stroke-width: 10px;
      }

      .cls-5, .cls-6 {
        stroke: #fff;
        stroke-miterlimit: 10;
      }

      .cls-6 {
        fill: none;
        stroke-width: 18px;
      }
    </style>
  </defs>
  <path class="cls-1" d="m0,55.24C0,25.08,24.45.63,54.61.63h402.77c30.16,0,54.61,24.45,54.61,54.61v402.77c0,30.16-24.45,54.61-54.61,54.61H54.61c-30.16,0-54.61-24.45-54.61-54.61V55.24Z"/>
  <path class="cls-4" d="m316.63,119.58c-1.45-6.9-8.22-11.32-15.11-9.87-6.9,1.45-11.32,8.22-9.87,15.12,1.45,6.9,8.22,11.32,15.12,9.87,6.9-1.45,11.32-8.22,9.87-15.12Z"/>
  <path class="cls-3" d="m1058.12,103.58c98.7,0,178.71,71.7,178.71,160.14s-80.01,160.14-178.71,160.14-178.71-71.7-178.71-160.14c0-88.44,80.01-160.14,178.71-160.14Zm79.11,107.92c-19.6-18.73-51.4-18.74-71,0l-8.11,7.75-8.11-7.75c-19.61-18.73-51.4-18.73-71,0-19.61,18.73-19.61,49.11,0,67.85l79.11,75.59,79.11-75.59c19.61-18.73,19.61-49.11,0-67.85Z"/>
  <path class="cls-2" d="m723,348.9h140.25v66.39h-234.43V111.8h94.18v237.09Z"/>
  <path class="cls-2" d="m1402.99,325.78h2.71l71.15-213.98h106.37l-114.51,303.48h-128.73l-114.51-303.48h106.38l71.14,213.98Z"/>
  <path class="cls-2" d="m1708.43,415.28h-94.18V111.8h94.18v303.48Z"/>
  <path class="cls-2" d="m1844.85,415.28h-94.18V111.8h94.18v303.48Z"/>
  <g id="_Слой_8_копия3_" data-name="Слой 8 (копия3)">
    <g>
      <g>
        <path class="cls-6" d="m135.39,354.84s20.1,2.43,82.63,3.46,76.48-45.47,75.44-76.48-41.34-27.39-49.61-22.22-146.24,127.64-141.07,126.6,55.98,1.55,74.41-.52c16.54,6.2,50.12,27.39,95.08,14.99,94.56-26.87,79.85-97.15,80.88-113.68s.25-135.9-.27-147.27,8.78-70.28-48.76-70.28-52.01,60.46-52.01,157.67c0,0,82.11-8.74,72.69,70.04-7.58,47.54-58.61,48.24-58.61,48.24"/>
        <path class="cls-4" d="m352.61,114.21s19.19.48,26.94,12.31c2.62,5.25,2.2,7.35-9.34,8.82-6.72.86-10.25,4.47-10.25,4.47l-7.35-25.59Z"/>
        <path class="cls-4" d="m262.57,401.88l2.91,30.81s-36.95-3.82-36.95,10.67c1.55,12.09,12.42,10.33,42.41,9.93,12.63-.31,42.51,5.27,42.43-10.25-.08-14.59-25.47-10.22-28.91-10.22,0-9.88,1.91-35.26,1.91-35.26l-23.8,4.33Z"/>
      </g>
      <path class="cls-6" d="m128.8,246.51l-.99,47.88c-.21,10.4,8.16,18.95,18.57,18.95h35.26"/>
      <path class="cls-6" d="m119.27,241h94.62s-1.24-49.15,16.88-49.15h21.23s-101.27-1.15-115.28,4.13-17.45,45.01-17.45,45.01Z"/>
      <line class="cls-6" x1="209.41" y1="241" x2="209.41" y2="287.69"/>
    </g>
  </g>
  <g id="_Слой_10_копия3_" data-name="Слой 10 (копия3)">
    <path class="cls-5" d="m195.36,233.69c-6.49-6.49-17-6.49-23.49,0l-2.68,2.68-2.68-2.68c-6.49-6.49-17-6.49-23.49,0-5.71,5.71-6.39,14.54-2.05,20.99,5.38,6.58,12.43,13.84,28.39,28.49l26-26c6.49-6.49,6.49-17,0-23.49Z"/>
  </g>
</svg>